<svg xmlns="http://www.w3.org/2000/svg" viewBox="0 0 32 32" width="32" height="32">
  <defs>
    <linearGradient id="starGradient" x1="0%" y1="0%" x2="100%" y2="100%">
      <stop offset="0%" style="stop-color:#4F46E5;stop-opacity:1" />
      <stop offset="100%" style="stop-color:#7C3AED;stop-opacity:1" />
    </linearGradient>
  </defs>
  
  <!-- Background circle -->
  <circle cx="16" cy="16" r="15" fill="url(#starGradient)" stroke="#E5E7EB" stroke-width="1"/>
  
  <!-- Nova star burst -->
  <g transform="translate(16,16)">
    <!-- Main star points -->
    <path d="M0,-8 L1.5,-3 L6,-3 L2.5,0 L4,5 L0,2 L-4,5 L-2.5,0 L-6,-3 L-1.5,-3 Z" 
          fill="#FFFFFF" opacity="0.9"/>
    
    <!-- Smaller inner star -->
    <path d="M0,-4 L0.8,-1.5 L3,-1.5 L1.2,0.5 L2,3 L0,1.5 L-2,3 L-1.2,0.5 L-3,-1.5 L-0.8,-1.5 Z" 
          fill="#FBBF24" opacity="0.8"/>
    
    <!-- Shopping cart element -->
    <g transform="translate(3,5) scale(0.6)">
      <rect x="0" y="0" width="6" height="4" rx="1" fill="#FFFFFF" opacity="0.7"/>
      <circle cx="1.5" cy="6" r="0.8" fill="#FFFFFF" opacity="0.7"/>
      <circle cx="4.5" cy="6" r="0.8" fill="#FFFFFF" opacity="0.7"/>
    </g>
  </g>
  
  <!-- Subtle highlight -->
  <circle cx="12" cy="10" r="2" fill="#FFFFFF" opacity="0.2"/>
</svg>